<svg width="14" height="16" viewBox="0 0 14 16" fill="none" xmlns="http://www.w3.org/2000/svg">
<path d="M2.64675 15.2656L3.05687 15.4443C3.10429 15.465 3.15803 15.4651 3.20557 15.4446L3.66773 15.245C3.84975 15.1678 4.02654 15.0786 4.19688 14.9779H13.0792C13.515 14.9774 13.8679 14.6243 13.8684 14.1887V1.65771C13.8679 1.22206 13.515 0.868962 13.0792 0.868475H9.04488C8.8338 0.426743 8.38769 0.145508 7.89817 0.145508C7.40853 0.145508 6.96254 0.426743 6.75147 0.868475H2.71703C2.28137 0.868962 1.92828 1.22193 1.92779 1.65771V8.18813L0.0970279 9.1916C0.0372062 9.22443 0 9.28717 0 9.35538V11.2241C0.00182384 12.9771 1.04044 14.5632 2.64675 15.2656ZM13.0792 1.242C13.3088 1.24224 13.4947 1.42815 13.4949 1.65771V14.1887C13.4947 14.4182 13.3088 14.6041 13.0792 14.6044H4.73504C5.17409 14.249 5.54081 13.8126 5.81511 13.3188H10.4113C10.4356 13.3187 10.4599 13.3169 10.4841 13.3135C10.5515 13.3301 10.6225 13.3076 10.6681 13.2552C10.7162 13.2296 10.7603 13.1969 10.7988 13.1583L12.3105 11.6465C12.4137 11.5439 12.4715 11.4043 12.4711 11.2589V3.01561C12.4708 2.74629 12.2526 2.52804 11.9833 2.52768H11.1575V1.95888C11.1575 1.85578 11.0738 1.77212 10.9707 1.77212H9.16938V1.41672C9.16926 1.35824 9.16501 1.29987 9.15686 1.242H13.0792ZM6.26912 9.19063L3.69861 7.82069V3.01561C3.69861 2.95239 3.7498 2.9012 3.81303 2.9012H4.63886V3.4047C4.63886 3.50793 4.72251 3.59146 4.82562 3.59146H10.9707C11.0738 3.59146 11.1575 3.50793 11.1575 3.4047V2.9012H11.9833C12.0464 2.9012 12.0977 2.95239 12.0977 3.01561V11.2142H11.1304C10.6947 11.2146 10.3416 11.5677 10.3411 12.0033V12.9452H5.99993C6.24298 12.3891 6.36834 11.7889 6.3681 11.182V9.35538C6.3681 9.28644 6.33004 9.22297 6.26912 9.19063ZM11.8411 11.5878L10.7147 12.7142V12.0033C10.7149 11.7739 10.9008 11.5879 11.1304 11.5878H11.8411ZM7.89817 0.519029C8.39365 0.519637 8.79525 0.921123 8.79586 1.41672V1.95888C8.79586 2.06199 8.87939 2.14565 8.98262 2.14565H10.784V3.21794H5.01238V2.14565H6.81372C6.91683 2.14565 7.00048 2.06199 7.00048 1.95888V1.41672C7.00109 0.921123 7.40258 0.519637 7.89817 0.519029ZM2.30131 1.65771C2.30156 1.42815 2.48759 1.24224 2.71703 1.242H6.63924C6.63109 1.29987 6.62696 1.35824 6.62684 1.41672V1.77212H4.82562C4.72251 1.77212 4.63886 1.85578 4.63886 1.95888V2.52768H3.81303C3.54371 2.52804 3.32546 2.74629 3.32509 3.01561V7.62177L3.22977 7.57094C3.1742 7.54127 3.10745 7.54176 3.05225 7.57204L2.30131 7.98349V1.65771ZM0.373521 9.46603L2.20295 8.4634L2.20428 8.46255L3.14319 7.94811L3.422 8.09657L3.42394 8.09754L5.99458 9.46749V11.182C5.99421 12.8067 5.01943 14.2726 3.52146 14.9013L3.52012 14.9018L3.13189 15.0695L2.7963 14.9232C1.32605 14.2803 0.375223 12.8287 0.373521 11.2241V9.46603Z" fill="black"/>
</svg>
