<svg width="16" height="16" viewBox="0 0 16 16" fill="none" xmlns="http://www.w3.org/2000/svg">
<path d="M3.5999 13.6002C3.30172 13.6002 3.01422 13.4892 2.79342 13.2888C2.57261 13.0884 2.43433 12.813 2.4055 12.5162L2.3999 12.401V3.60099C2.39992 3.30268 2.51104 3.01507 2.7116 2.79425C2.91216 2.57343 3.18777 2.43522 3.4847 2.40659L3.5999 2.40019H7.1999C7.49808 2.40018 7.78559 2.51119 8.00639 2.71159C8.22719 2.91198 8.36548 3.1874 8.3943 3.48419L8.3999 3.60019V3.80339L10.1511 1.98819C10.3575 1.77413 10.636 1.64432 10.9327 1.62392C11.2293 1.60352 11.523 1.69399 11.7567 1.87779L11.8495 1.95859L14.0551 4.13859C14.2669 4.34793 14.3933 4.62854 14.4097 4.92587C14.4261 5.2232 14.3314 5.51601 14.1439 5.74739L14.0615 5.84019L12.2127 7.60019H12.3999C12.6982 7.6002 12.9858 7.71132 13.2066 7.91188C13.4275 8.11244 13.5657 8.38806 13.5943 8.68499L13.5999 8.80019V12.4002C13.5999 12.6984 13.4889 12.9859 13.2885 13.2067C13.0881 13.4275 12.8127 13.5658 12.5159 13.5946L12.3999 13.6002H3.5999ZM7.5999 8.40019H3.1999V12.4002C3.1997 12.482 3.22459 12.5619 3.27123 12.6292C3.31786 12.6964 3.38399 12.7477 3.4607 12.7762L3.5279 12.7946L3.5999 12.801H7.5999V8.40099V8.40019ZM12.3999 8.40019H8.3999V12.8002H12.3999C12.4935 12.8002 12.5842 12.7674 12.6561 12.7075C12.728 12.6475 12.7767 12.5643 12.7935 12.4722L12.7999 12.4002V8.80019C12.7997 8.7067 12.7669 8.61623 12.7069 8.54447C12.647 8.47272 12.5639 8.42421 12.4719 8.40739L12.3999 8.40099V8.40019ZM8.3999 6.16819V7.60019H9.8319L8.3999 6.16819ZM7.1999 3.20019H3.5999C3.50617 3.20019 3.41541 3.23311 3.34347 3.29321C3.27154 3.3533 3.22299 3.43675 3.2063 3.52899L3.1999 3.60099V7.60099H7.5999V3.60099C7.59994 3.5193 7.57497 3.43956 7.52835 3.37248C7.48173 3.30541 7.41568 3.25421 7.3391 3.22579L7.2719 3.20819L7.1999 3.20099V3.20019ZM11.2975 2.53939C11.2302 2.47273 11.1416 2.43194 11.0472 2.42418C10.9528 2.41643 10.8588 2.44221 10.7815 2.49699L10.7271 2.54499L8.6343 4.71539C8.57115 4.78089 8.53222 4.86596 8.52393 4.95657C8.51564 5.04718 8.53848 5.13791 8.5887 5.21379L8.6391 5.27619L10.7319 7.36819C10.796 7.43237 10.88 7.47287 10.9701 7.48305C11.0602 7.49322 11.1511 7.47247 11.2279 7.42419L11.2903 7.37539L13.4967 5.27379C13.5625 5.20721 13.6028 5.11967 13.6107 5.02641C13.6186 4.93315 13.5936 4.84008 13.5399 4.76339L13.4927 4.70819L11.2975 2.53939Z" fill="black"/>
</svg>
