<svg width="14" height="16" viewBox="0 0 14 16" fill="none" xmlns="http://www.w3.org/2000/svg">
<path fill-rule="evenodd" clip-rule="evenodd" d="M5.8762 0.500875C6.5156 0.501875 7.0812 0.920675 7.2832 1.54888C7.3124 1.64368 7.4012 1.70707 7.5 1.70707H8.6356C8.8044 1.70707 8.9302 1.83207 8.9302 1.99467V3.18427C8.9302 3.34687 8.8044 3.47387 8.6356 3.47387H3.1168C2.948 3.47387 2.823 3.34687 2.823 3.18427V1.99467C2.823 1.83227 2.948 1.70707 3.1168 1.70707H4.252C4.3512 1.70707 4.4396 1.64368 4.4688 1.54888C4.6708 0.920875 5.2376 0.500875 5.8762 0.500875ZM5.8762 0.046875C5.1052 0.047875 4.4562 0.546875 4.1488 1.25187H1.1812C0.5436 1.25187 0 1.72788 0 2.33868V14.8727C0 15.4841 0.5438 15.9593 1.1812 15.9593H10.5718C11.2104 15.9593 11.753 15.4843 11.753 14.8727V13.8457C11.7674 13.5299 11.2862 13.5299 11.2998 13.8457V14.8727C11.2998 15.2135 10.9916 15.5061 10.5716 15.5061H1.1812C0.7624 15.5061 0.453 15.2135 0.453 14.8727V2.33868C0.453 1.99788 0.7624 1.70707 1.1812 1.70707H2.428C2.3904 1.79567 2.3698 1.89267 2.3698 1.99467V3.18427C2.3698 3.59387 2.7074 3.92728 3.1166 3.92728H8.6354C9.0448 3.92728 9.3842 3.59387 9.3842 3.18427V1.99467C9.3842 1.89287 9.3634 1.79567 9.3248 1.70707H10.5716C10.9916 1.70707 11.2998 1.99788 11.2998 2.33868V4.21348C11.2862 4.53008 11.7674 4.53008 11.753 4.21348V2.33868C11.753 1.72788 11.2104 1.25187 10.5718 1.25187H7.6032C7.2958 0.546875 6.6468 0.047875 5.8762 0.046875Z" fill="black"/>
<path fill-rule="evenodd" clip-rule="evenodd" d="M5.87593 1.58748C6.10713 1.58748 6.29673 1.77808 6.29673 2.02708C6.29673 2.27588 6.10733 2.46548 5.87593 2.46548C5.64453 2.46548 5.45713 2.27588 5.45713 2.02708C5.45713 1.77808 5.64473 1.58748 5.87593 1.58748ZM5.87593 1.13428C5.39233 1.13428 5.00293 1.54028 5.00293 2.02708C5.00293 2.51448 5.39233 2.91848 5.87593 2.91848C6.35913 2.91848 6.74973 2.51448 6.74973 2.02708C6.74973 1.54048 6.35913 1.13428 5.87593 1.13428Z" fill="black"/>
<path fill-rule="evenodd" clip-rule="evenodd" d="M9.43037 7.56335C9.84597 7.56335 10.1878 7.91455 10.189 8.36555C10.189 8.63435 10.0608 8.88535 9.85217 9.03215C9.77717 9.08515 9.74197 9.17895 9.76157 9.26855L10.0514 10.502H8.80837L9.09817 9.26855C9.11897 9.17895 9.08257 9.08515 9.00757 9.03215C8.79897 8.88515 8.67197 8.63415 8.67077 8.36555C8.67217 7.91455 9.01397 7.56335 9.43037 7.56335ZM9.43037 7.11035C8.75777 7.11035 8.21777 7.68015 8.21777 8.36655C8.21777 8.70095 8.42017 8.97275 8.64597 9.20715L8.35837 10.4394C8.29697 10.702 8.48457 10.9562 8.75957 10.9562H10.1002C10.3764 10.9562 10.5628 10.702 10.5022 10.4394L10.214 9.20715C10.4398 8.97275 10.6422 8.70095 10.6422 8.36655C10.6422 7.68015 10.1024 7.11035 9.43037 7.11035Z" fill="black"/>
<path d="M9.4299 5.0937L13.2029 6.4051V7.7527C13.2029 10.7019 11.7143 12.4391 9.4299 13.6799C7.1457 12.4391 5.6573 10.7007 5.6573 7.7527V6.4051L9.4299 5.0937ZM9.3561 4.6393L5.3561 6.0299C5.2655 6.0611 5.2041 6.1477 5.2041 6.2435V7.7527C5.2041 10.9091 6.8861 12.8603 9.3249 14.1507C9.3905 14.1861 9.4699 14.1861 9.5363 14.1507C11.9739 12.8603 13.6563 10.9091 13.6563 7.7527V6.2435C13.6563 6.1477 13.5957 6.0611 13.5043 6.0299L9.5051 4.6393C9.4499 4.6195 9.3999 4.6237 9.3561 4.6393Z" fill="black"/>
<path d="M1.78883 6.0166C1.47403 6.0166 1.47403 6.4698 1.78883 6.4698H4.20023C4.51463 6.4698 4.51463 6.0166 4.20023 6.0166H1.78883Z" fill="black"/>
<path d="M1.76549 7.38216C1.46349 7.38616 1.48549 7.83516 1.78849 7.83516H4.19989C4.51429 7.83516 4.51429 7.37896 4.19989 7.38216C3.38929 7.39036 2.57489 7.37176 1.76549 7.38216Z" fill="black"/>
<path d="M1.78883 8.74609C1.47403 8.74609 1.47403 9.20029 1.78883 9.20029H4.20023C4.51463 9.20029 4.51463 8.74609 4.20023 8.74609H1.78883Z" fill="black"/>
<path d="M1.76549 10.1126C1.46349 10.116 1.48549 10.5658 1.78849 10.5658H4.19989C4.51429 10.5658 4.51429 10.1084 4.19989 10.1126C3.38929 10.121 2.57489 10.101 1.76549 10.1126Z" fill="black"/>
<path d="M1.78892 11.4756C1.48572 11.4756 1.48572 11.9308 1.78892 11.9308H5.19292C5.49612 11.9308 5.49612 11.4756 5.19292 11.4756C4.05772 11.4756 2.92332 11.4756 1.78892 11.4756Z" fill="black"/>
<path d="M1.78883 12.8413C1.47403 12.8413 1.47403 13.2945 1.78883 13.2945H5.86463C6.17943 13.2945 6.17943 12.8413 5.86463 12.8413C4.50523 12.8413 3.14703 12.8413 1.78883 12.8413Z" fill="black"/>
</svg>
