<svg width="15" height="15" viewBox="0 0 15 15" fill="none" xmlns="http://www.w3.org/2000/svg">
<path d="M14.7 7.5C14.7 11.4764 11.4764 14.7 7.5 14.7C3.52355 14.7 0.3 11.4764 0.3 7.5C0.3 3.52355 3.52355 0.3 7.5 0.3C11.4764 0.3 14.7 3.52355 14.7 7.5Z" stroke="black" stroke-width="0.6"/>
<path d="M8.88391 5.5949L8.81411 5.45346L7.62484 3.04374C7.62484 3.04374 7.62484 3.04374 7.62483 3.04374C7.60135 2.99615 7.55286 2.96602 7.49978 2.96602C7.44671 2.96602 7.39823 2.99615 7.37474 3.04375L7.37473 3.04377L6.18545 5.45349L6.11565 5.59492L5.95957 5.6176L3.30027 6.00403L3.25713 5.70715L3.30027 6.00403C3.24773 6.01166 3.20408 6.04848 3.18769 6.09893C3.1713 6.1494 3.18498 6.20483 3.22298 6.24188C3.22299 6.24188 3.22299 6.24189 3.22299 6.24189L5.14729 8.11758L5.26023 8.22767L5.23357 8.38313L4.77929 11.0317C4.77929 11.0317 4.77929 11.0317 4.77929 11.0317C4.77032 11.084 4.79184 11.1369 4.83477 11.1681C4.87776 11.1993 4.93467 11.2034 4.98163 11.1787L7.36018 9.92822L7.49978 9.85483L7.63939 9.92822L10.0179 11.1787L8.88391 5.5949ZM8.88391 5.5949L9.03999 5.61758L11.6993 6.004C11.7518 6.01162 11.7954 6.04837 11.8118 6.0989L8.88391 5.5949ZM10.2203 11.0317C10.2293 11.084 10.2078 11.1369 10.1648 11.1681L11.7765 6.24191L9.8523 8.11759L9.73936 8.22768L9.76602 8.38313L10.2203 11.0317C10.2203 11.0317 10.2203 11.0317 10.2203 11.0317Z" stroke="black" stroke-width="0.6"/>
</svg>
