<svg width="14" height="16" viewBox="0 0 14 16" fill="none" xmlns="http://www.w3.org/2000/svg">
<path d="M5.14998 7.70761H2.1685C2.09662 7.70761 2.02768 7.67906 1.97685 7.62823C1.92602 7.5774 1.89746 7.50846 1.89746 7.43657C1.89746 7.36469 1.92602 7.29574 1.97685 7.24491C2.02768 7.19408 2.09662 7.16553 2.1685 7.16553H5.14998C5.22187 7.16553 5.29081 7.19408 5.34164 7.24491C5.39247 7.29574 5.42103 7.36469 5.42103 7.43657C5.42103 7.50846 5.39247 7.5774 5.34164 7.62823C5.29081 7.67906 5.22187 7.70761 5.14998 7.70761Z" fill="black"/>
<path d="M2.1685 5.81055H9.21563C9.28752 5.81055 9.35646 5.8391 9.40729 5.88993C9.45812 5.94076 9.48668 6.00971 9.48668 6.08159C9.48668 6.15348 9.45812 6.22242 9.40729 6.27325C9.35646 6.32408 9.28752 6.35263 9.21563 6.35263H2.1685C2.09662 6.35263 2.02768 6.32408 1.97685 6.27325C1.92602 6.22242 1.89746 6.15348 1.89746 6.08159C1.89746 6.00971 1.92602 5.94076 1.97685 5.88993C2.02768 5.8391 2.09662 5.81055 2.1685 5.81055Z" fill="black"/>
<path d="M2.1685 4.45508H9.21563C9.28752 4.45508 9.35646 4.48363 9.40729 4.53446C9.45812 4.5853 9.48668 4.65424 9.48668 4.72612C9.48668 4.79801 9.45812 4.86695 9.40729 4.91778C9.35646 4.96861 9.28752 4.99716 9.21563 4.99716H2.1685C2.09662 4.99716 2.02768 4.96861 1.97685 4.91778C1.92602 4.86695 1.89746 4.79801 1.89746 4.72612C1.89746 4.65424 1.92602 4.5853 1.97685 4.53446C2.02768 4.48363 2.09662 4.45508 2.1685 4.45508Z" fill="black"/>
<path d="M2.1685 3.1001H9.21563C9.28752 3.1001 9.35646 3.12865 9.40729 3.17948C9.45812 3.23031 9.48668 3.29926 9.48668 3.37114C9.48668 3.44303 9.45812 3.51197 9.40729 3.5628C9.35646 3.61363 9.28752 3.64218 9.21563 3.64218H2.1685C2.09662 3.64218 2.02768 3.61363 1.97685 3.5628C1.92602 3.51197 1.89746 3.44303 1.89746 3.37114C1.89746 3.29926 1.92602 3.23031 1.97685 3.17948C2.02768 3.12865 2.09662 3.1001 2.1685 3.1001Z" fill="black"/>
<path d="M13.2378 7.43939L13.0535 7.62641L12.8583 7.43126L13.0291 7.2605C13.2554 7.03491 13.3881 6.73206 13.4005 6.41272C13.4129 6.09338 13.3041 5.78115 13.0959 5.53867C12.8878 5.2962 12.5956 5.1414 12.2781 5.10534C11.9605 5.06927 11.6411 5.15461 11.3838 5.34423V1.74477C11.3832 1.52931 11.2973 1.32286 11.145 1.17051C10.9926 1.01816 10.7862 0.932284 10.5707 0.931641H0.81313C0.597673 0.932284 0.391223 1.01816 0.238871 1.17051C0.086519 1.32286 0.000643482 1.52931 0 1.74477V14.7549C0.000643482 14.9703 0.086519 15.1768 0.238871 15.3291C0.391223 15.4815 0.597673 15.5673 0.81313 15.568H10.5707C10.7862 15.5673 10.9926 15.4815 11.145 15.3291C11.2973 15.1768 11.3832 14.9703 11.3838 14.7549V10.0631L13.6226 7.82428C13.6737 7.77324 13.7024 7.70401 13.7024 7.63183C13.7024 7.55965 13.6737 7.49043 13.6226 7.43939C13.5716 7.38835 13.5024 7.35968 13.4302 7.35968C13.358 7.35968 13.2888 7.38835 13.2378 7.43939ZM10.8417 9.83813L10.5246 10.1552C10.4785 10.2008 10.4504 10.2614 10.4454 10.326C10.4404 10.3906 10.4589 10.4548 10.4975 10.5069C10.536 10.559 10.5921 10.5954 10.6553 10.6094C10.7185 10.6235 10.7847 10.6143 10.8417 10.5835V14.7549C10.8417 14.8267 10.8132 14.8957 10.7624 14.9465C10.7115 14.9973 10.6426 15.0259 10.5707 15.0259H0.81313C0.741245 15.0259 0.672304 14.9973 0.621474 14.9465C0.570643 14.8957 0.542087 14.8267 0.542087 14.7549V1.74477C0.542087 1.67289 0.570643 1.60394 0.621474 1.55311C0.672304 1.50228 0.741245 1.47373 0.81313 1.47373H10.5707C10.6426 1.47373 10.7115 1.50228 10.7624 1.55311C10.8132 1.60394 10.8417 1.67289 10.8417 1.74477V5.86463C9.70335 7.00301 5.7678 10.9386 5.76509 10.944C5.68839 11.0207 5.63282 11.06 5.61331 11.1635C5.6068 11.1906 5.24469 12.8402 5.24469 12.8684L4.97094 13.1421C4.9199 13.1932 4.89122 13.2624 4.89122 13.3346C4.89122 13.4068 4.9199 13.476 4.97094 13.527C5.02198 13.5781 5.0912 13.6067 5.16338 13.6067C5.23556 13.6067 5.30478 13.5781 5.35582 13.527L5.63228 13.2506C5.67429 13.2506 7.29459 12.8941 7.33444 12.8847C7.45776 12.8557 7.46752 12.8248 7.55669 12.7356L10.8417 9.44782V9.83813ZM6.00361 11.627L6.87095 12.4944C5.97488 12.693 6.48824 12.5803 5.76238 12.7356C5.91227 12.0344 5.85454 12.2995 6.00361 11.627ZM7.38051 12.1474L6.35326 11.1202C6.43728 11.0318 10.2617 7.20874 10.3484 7.12227L11.3757 8.14953C11.225 8.29941 7.5079 12.0133 7.38051 12.1474ZM11.3838 9.29604V8.90574C12.2945 7.99503 12.0563 8.23274 12.4761 7.81614L12.6713 8.00858L11.3838 9.29604ZM12.6442 6.87833C12.1899 7.3326 12.3883 7.13366 11.7606 7.76465H11.7579L10.736 6.7401C10.8935 6.57883 10.7404 6.73278 11.6196 5.85379C11.756 5.72019 11.9395 5.64578 12.1304 5.64675C12.3213 5.64771 12.5041 5.72396 12.639 5.85894C12.774 5.99391 12.8503 6.1767 12.8512 6.36758C12.8522 6.55846 12.7778 6.742 12.6442 6.87833Z" fill="black"/>
</svg>
